<?xml version="1.0" encoding="utf-8"?><svg xmlns="http://www.w3.org/2000/svg" xmlns:xlink="http://www.w3.org/1999/xlink"><symbol fill="none" viewBox="0 0 40 40" id="#5A5752" xmlns="http://www.w3.org/2000/svg"><path fill="#5A5752" stroke="#A7BBC3" stroke-width="2" d="M1 1h38v38H1z"/></symbol><symbol fill="none" viewBox="0 0 40 40" id="#9E9E92" xmlns="http://www.w3.org/2000/svg"><path fill="#9E9E92" d="M0 0h40v40H0z"/></symbol><symbol fill="none" viewBox="0 0 40 40" id="#DCC8A6" xmlns="http://www.w3.org/2000/svg"><path fill="#DCC8A6" d="M0 0h40v40H0z"/></symbol><symbol fill="none" viewBox="0 0 75 88" id="bag" xmlns="http://www.w3.org/2000/svg"><path d="M72.644 85.903H1.466l10.566-63.74h50.045l10.566 63.74z" fill="#fff" fill-opacity=".63"/><path d="M74.091 85.663L63.525 21.922a1.469 1.469 0 00-1.447-1.227h-4.184a1.467 1.467 0 100 2.935h2.935l10.078 60.806H3.197l10.08-60.806h7.974v9.767a1.468 1.468 0 102.935 0V15.803a12.867 12.867 0 1125.736 0v4.89H29.621a1.467 1.467 0 100 2.936h20.302v9.767a1.468 1.468 0 102.935 0V15.803a15.803 15.803 0 10-31.605 0v4.89h-9.22a1.469 1.469 0 00-1.447 1.228L.02 85.66a1.467 1.467 0 001.447 1.709h71.175a1.468 1.468 0 001.448-1.708l.001.001z" fill="#414142"/><path d="M37.056 62.188a12.465 12.465 0 0012.45-12.451 1.468 1.468 0 00-2.935 0 9.518 9.518 0 01-17.762 4.748 1.468 1.468 0 10-2.541 1.47 12.499 12.499 0 0010.788 6.233z" fill="#414142"/></symbol><symbol fill="none" viewBox="0 0 101 68" id="car" xmlns="http://www.w3.org/2000/svg"><path fill-rule="evenodd" clip-rule="evenodd" d="M8.005 56.29h-6.35V40.147c.828-2.07 3.146-6.209 5.795-6.209l1.656-18.211H5.38v-5.38l2.07-3.312 4.552-.827h20.28v50.08h-6.288a9 9 0 10-17.99 0zM98.506 2.483H33.94V56.29h40.063a9.5 9.5 0 0118.996 0h5.508V2.483z" fill="#F8F8F8"/><path d="M91.878 8.284a1.565 1.565 0 00-2.213 0L61.036 36.913 49.622 25.499a1.565 1.565 0 00-2.213 2.213l12.52 12.52a1.565 1.565 0 002.214 0l29.735-29.735a1.565 1.565 0 000-2.213zM82.947 50.08a6.26 6.26 0 100 12.521 6.26 6.26 0 000-12.52zm0 9.391a3.13 3.13 0 110-6.26 3.13 3.13 0 010 6.26zM17.215 50.08a6.26 6.26 0 100 12.521 6.26 6.26 0 000-12.52zm0 9.391a3.13 3.13 0 110-6.26 3.13 3.13 0 010 6.26z" fill="#414142"/><path d="M98.597 0H32.866C32 0 31.3.7 31.3 1.565v3.13h-7.826a1.565 1.565 0 000 3.13H31.3v6.26H6.26V12.52a4.695 4.695 0 014.694-4.695h4.695a1.565 1.565 0 000-3.13h-4.695A7.835 7.835 0 003.13 12.52v3.13c0 .865.7 1.565 1.565 1.565H7.69L6.373 33.013A7.825 7.825 0 000 40.69v15.65c0 .864.7 1.565 1.565 1.565h4.82c.86 5.981 6.404 10.134 12.386 9.275a10.941 10.941 0 009.274-9.275h29.861a1.565 1.565 0 000-3.13H34.431V3.13h62.6v51.646h-3.255c-.858-5.981-6.404-10.134-12.385-9.275a10.94 10.94 0 00-9.275 9.275h-7.95a1.565 1.565 0 000 3.13h7.95c.86 5.981 6.405 10.134 12.386 9.275a10.941 10.941 0 009.275-9.275h4.82c.864 0 1.565-.7 1.565-1.565V1.565c0-.864-.7-1.565-1.565-1.565zM17.215 64.166a7.825 7.825 0 117.826-7.825 7.835 7.835 0 01-7.826 7.825zm14.086-9.39h-3.256c-.859-5.981-6.404-10.134-12.385-9.275a10.94 10.94 0 00-9.275 9.275H3.13V40.691a4.695 4.695 0 014.695-4.695h23.476v18.78zm0-21.91H9.526l1.304-15.65H31.3v15.65zm51.645 31.3a7.825 7.825 0 117.826-7.825 7.835 7.835 0 01-7.826 7.825z" fill="#414142"/></symbol><symbol viewBox="0 0 26 21" fill="none" id="card" xmlns="http://www.w3.org/2000/svg"><path fill-rule="evenodd" clip-rule="evenodd" d="M24.645 7.5a.75.75 0 110 1.5h-.939L21.73 19.165C21.523 20.227 20.56 21 19.435 21H6.458c-1.123 0-2.087-.772-2.294-1.836L2.187 9H1.25a.75.75 0 110-1.5h3.477L9.168.364a.795.795 0 011.067-.257.735.735 0 01.267 1.029L6.54 7.5h12.812l-3.961-6.364a.735.735 0 01.267-1.03.795.795 0 011.067.258L21.167 7.5h3.478zM22.124 9H3.77h18.354z" fill="#fff"/></symbol><symbol fill="none" viewBox="0 0 15 13" id="checkmark-green" xmlns="http://www.w3.org/2000/svg"><path d="M6.68 13C2.998 13 0 10.084 0 6.5S2.997 0 6.68 0c1.281 0 2.528.355 3.604 1.028a.437.437 0 01.138.612.463.463 0 01-.63.134A5.861 5.861 0 006.68.886C3.499.886.91 3.405.91 6.5c0 3.095 2.588 5.614 5.77 5.614 3.18 0 5.77-2.519 5.77-5.614 0-.185-.01-.368-.028-.548a.447.447 0 01.41-.484.453.453 0 01.497.398c.02.209.031.42.031.634 0 3.584-2.997 6.5-6.68 6.5z" fill="#1B8E26"/><path d="M7.456 7.944a.438.438 0 01-.316-.133l-2.676-2.73a.462.462 0 010-.644.44.44 0 01.631 0l2.361 2.409L13.683.494a.44.44 0 01.63 0 .462.462 0 010 .644L7.772 7.812a.442.442 0 01-.315.132z" fill="#1B8E26"/></symbol><symbol fill="none" viewBox="0 0 20 20" id="facebook" xmlns="http://www.w3.org/2000/svg"><path d="M16.999 0H2.917A2.927 2.927 0 000 2.93v14.14A2.927 2.927 0 002.917 20h5.874v-7.07H6.457V9.414h2.334V7.031a3.512 3.512 0 013.501-3.515h3.54V7.03h-3.54v2.383h3.54l-.584 3.516h-2.956V20h4.707a2.927 2.927 0 002.918-2.93V2.93A2.927 2.927 0 0016.998 0z" fill="#6D6D6D"/></symbol><symbol fill="none" viewBox="0 0 35 35" id="facebook-color" xmlns="http://www.w3.org/2000/svg"><path d="M29.873 0H5.127A5.133 5.133 0 000 5.127v24.746C0 32.7 2.3 35 5.127 35h10.322V22.627h-4.101v-6.152h4.101v-4.17a6.16 6.16 0 016.153-6.153h6.22v6.153h-6.22v4.17h6.22l-1.025 6.152h-5.195V35h8.271C32.7 35 35 32.7 35 29.873V5.127C35 2.3 32.7 0 29.873 0z" fill="#266AA9"/></symbol><symbol fill="none" viewBox="0 0 20 20" id="facebook-f" xmlns="http://www.w3.org/2000/svg"><path d="M17.07 0H2.93A2.933 2.933 0 000 2.93v14.14A2.933 2.933 0 002.93 20h5.898v-7.07H6.484V9.414h2.344V7.031a3.52 3.52 0 013.516-3.515h3.554V7.03h-3.554v2.383h3.554l-.585 3.516h-2.97V20h4.727A2.933 2.933 0 0020 17.07V2.93A2.933 2.933 0 0017.07 0z" fill="#C4C4C4"/></symbol><symbol viewBox="0 0 29 34" id="girl" xmlns="http://www.w3.org/2000/svg"><g stroke="#201009" stroke-width=".5" fill="none" fill-rule="evenodd" stroke-linecap="round" stroke-linejoin="round"><path d="M22.3 24.4c-2.1 2.2-5 3.5-8.3 3.5-3 0-5.8-1.2-7.9-3.1m.8-8.9c1.4-1.5 2.7-1.5 4.1 0m6 0c1.4-1.5 2.7-1.5 4.1 0M9 22.5c3.4 2.2 6.8 2.2 10.1 0m-13 2.4c-.5-.4-.8-.7-1.3-1.7m21-7.3c.1 1-.1 2.2-.3 3.3m-2.3-9.5c.4 1.4 1 2.9 2 4.2"/><path d="M9.9 33.3c-.4.2-4.4-3.3-5.1-9.4-.2-1.7-.1-3.5.3-5.6 1.4-7 13.4-5 15.3-10.4 0 0 .3 4.8 2.6 7.8 2.4 3.1-1.9 11.6-1.9 11.6s7.2-2.7 7.2-10.3c0-7.6-2.5-12.2-6.4-12.5C21 2.1 17.4 1 14.8 1 6.1 1 .5 6.8.5 16.8.4 34.3 9.9 33.3 9.9 33.3z"/><path d="M4.1 13.1c-.7 2-1.1 4.4-1.1 7M17.3 4.3c-4.8 0-8.7 1.8-11.2 5.1"/></g></symbol><symbol fill="none" viewBox="0 0 36 35" id="google-color" xmlns="http://www.w3.org/2000/svg"><path fill-rule="evenodd" clip-rule="evenodd" d="M3.25 0a3 3 0 00-3 3v29a3 3 0 003 3h29a3 3 0 003-3V3a3 3 0 00-3-3h-29zm21.192 12.29c-1.236-1.687-3.394-2.911-5.78-2.911-3.984 0-7.294 3.24-7.294 7.225 0 3.984 3.31 7.225 7.294 7.225a7.182 7.182 0 006.503-4.13h-5.47v-4.128h10.32v1.033c0 1.073-.144 2.105-.433 3.096a11.337 11.337 0 01-10.92 8.257c-6.275 0-11.422-5.078-11.422-11.353 0-6.276 5.147-11.354 11.422-11.354 3.584 0 6.958 1.808 8.711 4.087l-2.93 2.952z" fill="#C05846"/></symbol><symbol fill="none" viewBox="0 0 20 20" id="google-f" xmlns="http://www.w3.org/2000/svg"><path fill-rule="evenodd" clip-rule="evenodd" d="M0 3a3 3 0 013-3h14a3 3 0 013 3v14a3 3 0 01-3 3H3a3 3 0 01-3-3V3zm17.47 5.463h-1.995V9.96h-1.497v1.995h1.497v1.497h1.995v-1.496H19V9.96h-1.53V8.463zm-7.155-.06A3.516 3.516 0 007.52 6.995c-1.926 0-3.525 1.566-3.525 3.492 0 1.925 1.6 3.492 3.525 3.492a3.471 3.471 0 003.143-1.996H8.02V9.99h4.989v.499c0 .519-.07 1.017-.21 1.496a5.48 5.48 0 01-5.278 3.992C4.488 15.976 2 13.52 2 10.488 2 7.455 4.488 5 7.521 5c1.732 0 3.363.874 4.21 1.976l-1.416 1.426z" fill="#C4C4C4"/></symbol><symbol fill="none" viewBox="0 0 21 20" id="inst" xmlns="http://www.w3.org/2000/svg"><path d="M17.887 0H3.805A2.927 2.927 0 00.887 2.93v14.14A2.927 2.927 0 003.805 20h14.082a2.927 2.927 0 002.917-2.93V2.93A2.927 2.927 0 0017.887 0zm-7.002 15.234c-2.896 0-5.252-2.365-5.252-5.273 0-2.908 2.356-5.274 5.252-5.274s5.251 2.366 5.251 5.274-2.355 5.273-5.251 5.273zM16.72 5.86c-.965 0-1.75-.788-1.75-1.757 0-.97.785-1.758 1.75-1.758s1.75.788 1.75 1.758c0 .969-.785 1.757-1.75 1.757z" fill="#6D6D6D"/><path d="M16.72 3.516a.585.585 0 000 1.171.585.585 0 000-1.171zM10.846 7a2.997 2.997 0 00-2.988 3c0 1.654 1.34 3 2.988 3a2.997 2.997 0 002.988-3c0-1.654-1.34-3-2.988-3z" fill="#6D6D6D"/></symbol><symbol fill="none" viewBox="0 0 20 20" id="inst-f" xmlns="http://www.w3.org/2000/svg"><path d="M17.07 0H2.93A2.933 2.933 0 000 2.93v14.14A2.933 2.933 0 002.93 20h14.14A2.933 2.933 0 0020 17.07V2.93A2.933 2.933 0 0017.07 0zm-7.03 15.234a5.28 5.28 0 01-5.274-5.273 5.28 5.28 0 015.273-5.274 5.28 5.28 0 015.274 5.274 5.28 5.28 0 01-5.274 5.273zm5.858-9.375a1.76 1.76 0 01-1.757-1.757c0-.97.788-1.758 1.757-1.758.97 0 1.758.788 1.758 1.758a1.76 1.76 0 01-1.758 1.757z" fill="#C4C4C4"/><path d="M15.898 3.516a.586.586 0 10.001 1.172.586.586 0 000-1.172zM10 7c-1.654 0-3 1.346-3 3s1.346 3 3 3 3-1.346 3-3-1.346-3-3-3z" fill="#C4C4C4"/></symbol><symbol fill="none" viewBox="0 0 23 16" id="letter" xmlns="http://www.w3.org/2000/svg"><path d="M15.346 7.675l7.386 4.69V2.788l-7.386 4.886zM.823 2.789v9.575L8.21 7.675.823 2.79zM21.363 0H2.193C1.508 0 .966.511.863 1.17l10.914 7.22L22.69 1.17C22.588.511 22.046 0 21.363 0zm-7.271 8.506l-1.938 1.281a.682.682 0 01-.753 0L9.464 8.504l-8.597 5.46c.106.653.645 1.16 1.326 1.16h19.17c.68 0 1.22-.507 1.326-1.16l-8.597-5.458z" fill="#6D6D6D"/></symbol><symbol fill="none" viewBox="0 0 100 4" id="line" xmlns="http://www.w3.org/2000/svg"><path d="M1.653 0h20.672a1.653 1.653 0 010 3.306H1.653a1.653 1.653 0 010-3.306zm37 0h59.694a1.653 1.653 0 010 3.306H38.653a1.653 1.653 0 010-3.306zm-7.872 0H30a1 1 0 00-1 1v1.306a1 1 0 001 1h.781a1 1 0 001-1V1a1 1 0 00-1-1z" fill="#414142"/></symbol><symbol fill="none" viewBox="0 0 76 98" id="list" xmlns="http://www.w3.org/2000/svg"><path d="M73.5 96.31H1.69V1.69h58.235L73.5 15.284V96.31z" fill="#F8F8F8"/><path d="M21.12 34.638c3.267 0 5.915-2.459 5.915-5.491 0-3.033-2.648-5.492-5.914-5.492-3.266 0-5.914 2.459-5.914 5.492 0 3.032 2.648 5.491 5.914 5.491zm0 23.655c3.267 0 5.915-2.459 5.915-5.491 0-3.033-2.648-5.492-5.914-5.492-3.266 0-5.914 2.459-5.914 5.492 0 3.032 2.648 5.491 5.914 5.491zm0 23.655c3.267 0 5.915-2.458 5.915-5.491 0-3.033-2.648-5.491-5.914-5.491-3.266 0-5.914 2.458-5.914 5.491 0 3.033 2.648 5.491 5.914 5.491zM73.5 15.207H59.983V1.69L73.5 15.207z" fill="#A0A0A0"/><path d="M74.708 14.089L61.118.482A1.645 1.645 0 0059.954 0H1.645A1.643 1.643 0 000 1.646v94.708A1.647 1.647 0 001.644 98h71.902a1.643 1.643 0 001.644-1.646V15.253a1.648 1.648 0 00-.482-1.164zm-2.807 80.619H3.288V3.292h55.023v11.962a1.647 1.647 0 001.644 1.645h5.919a1.643 1.643 0 001.644-1.646 1.646 1.646 0 00-1.644-1.646h-4.275V5.619L71.9 15.934v78.774z" fill="#414142"/><path d="M21.117 21.966a7.924 7.924 0 00-4.224 1.212 7.285 7.285 0 00-2.799 3.224 6.811 6.811 0 00-.43 4.15 7.068 7.068 0 002.083 3.675 7.752 7.752 0 003.894 1.963 8.02 8.02 0 004.393-.41 7.527 7.527 0 003.411-2.647 6.9 6.9 0 001.28-3.99c-.004-1.904-.807-3.73-2.233-5.075-1.426-1.345-3.36-2.101-5.375-2.102zm0 11.18a4.42 4.42 0 01-2.355-.677 4.063 4.063 0 01-1.56-1.798 3.798 3.798 0 01-.24-2.314 3.941 3.941 0 011.162-2.049 4.323 4.323 0 012.172-1.095 4.473 4.473 0 012.45.23 4.197 4.197 0 011.901 1.475c.466.659.714 1.433.714 2.225a3.9 3.9 0 01-1.243 2.835 4.376 4.376 0 01-3.001 1.175v-.007zm38.889-6.112H34.614c-.441 0-.865.178-1.178.495a1.702 1.702 0 00-.488 1.195c0 .448.176.878.488 1.195.313.317.737.495 1.178.495h25.392c.442 0 .866-.178 1.178-.495a1.7 1.7 0 00.488-1.195 1.7 1.7 0 00-.488-1.195 1.655 1.655 0 00-1.178-.495zM21.117 45.62a7.926 7.926 0 00-4.224 1.213 7.286 7.286 0 00-2.798 3.223 6.811 6.811 0 00-.431 4.149 7.068 7.068 0 002.082 3.676 7.752 7.752 0 003.893 1.964 8.02 8.02 0 004.392-.41 7.527 7.527 0 003.412-2.644 6.9 6.9 0 001.281-3.99c-.002-1.904-.804-3.73-2.23-5.076-1.427-1.347-3.36-2.103-5.377-2.104zm0 11.181a4.42 4.42 0 01-2.356-.677 4.063 4.063 0 01-1.56-1.799 3.799 3.799 0 01-.238-2.314 3.939 3.939 0 011.163-2.05 4.32 4.32 0 012.172-1.093 4.473 4.473 0 012.45.23 4.197 4.197 0 011.901 1.478 3.85 3.85 0 01.712 2.226 3.901 3.901 0 01-1.245 2.831 4.376 4.376 0 01-3 1.173v-.005zm38.719-6.111h-.551a1.92 1.92 0 00-1.299.495 1.624 1.624 0 00-.538 1.194c0 .449.194.878.538 1.195a1.92 1.92 0 001.299.495h.55a1.92 1.92 0 001.3-.495c.344-.317.537-.746.537-1.195 0-.448-.193-.877-.537-1.194a1.92 1.92 0 00-1.3-.495zm-25.212 3.379h18.614c.444 0 .87-.178 1.185-.495a1.697 1.697 0 000-2.39 1.67 1.67 0 00-1.185-.494H34.624c-.444 0-.87.178-1.185.495a1.697 1.697 0 000 2.39c.315.316.74.494 1.185.494zM21.02 69.276c-1.99.003-3.898.761-5.305 2.108-1.406 1.347-2.197 3.172-2.198 5.076 0 .421.175.825.486 1.123.312.297.734.465 1.174.465.44 0 .862-.168 1.174-.465.311-.298.486-.702.486-1.123 0-.792.244-1.567.704-2.225a4.15 4.15 0 011.877-1.477 4.362 4.362 0 012.42-.229 4.247 4.247 0 012.143 1.096c.586.56.985 1.273 1.146 2.05a3.842 3.842 0 01-.238 2.314 4.048 4.048 0 01-1.543 1.797 4.322 4.322 0 01-2.326.674c-.44 0-.863.167-1.174.465a1.553 1.553 0 00-.486 1.123c0 .42.175.825.486 1.122.311.298.733.465 1.174.465a7.778 7.778 0 002.932-.49 7.552 7.552 0 002.503-1.543 7.174 7.174 0 001.679-2.352 6.902 6.902 0 000-5.583 7.175 7.175 0 00-1.68-2.352 7.551 7.551 0 00-2.502-1.542 7.81 7.81 0 00-2.933-.49v-.007zm38.986 5.069H34.614c-.441 0-.865.178-1.178.495a1.702 1.702 0 00-.488 1.194c0 .448.176.878.488 1.195.313.317.737.495 1.178.495h25.392c.442 0 .866-.178 1.178-.495.313-.317.488-.746.488-1.195 0-.448-.175-.878-.488-1.194a1.655 1.655 0 00-1.178-.495z" fill="#414142"/></symbol><symbol fill="none" viewBox="0 0 94 92" id="man" xmlns="http://www.w3.org/2000/svg"><path d="M25.5 62.5C10.3 66.1 9.833 82.333 11.5 90H83V78.5l-2.5-6-3.5-6-9.5-4L62 59c-1.5-1.333-4.5-4.6-4.5-7 0-2.4 3-7 4.5-9l3-8.5V26l-3-9.5-6.5-5.5L47 8.5 36.5 12l-7 9.5-1 13 4 8.5c4 5 8.2 15.9-7 19.5z" fill="#F8F8F8"/><path d="M71.8 23.446C70.988 10.381 60.103 0 46.837 0 33.57 0 22.684 10.381 21.873 23.446c-3.696.552-6.54 3.747-6.54 7.594 0 4.234 3.445 7.679 7.679 7.679a2.117 2.117 0 002.116-2.117V25.014c0-11.97 9.739-21.708 21.709-21.708 11.97 0 21.708 9.738 21.708 21.708v15.691a2.05 2.05 0 01-1.58 2l-3.51.836c2.131-4.36 3.322-9.373 3.322-14.248 0-6.466-2.004-12.04-5.795-16.12-3.638-3.915-8.657-6.071-14.134-6.071h-.022c-5.477 0-10.496 2.156-14.134 6.07-3.791 4.08-5.795 9.654-5.795 16.12 0 6.799 2.234 13.677 6.128 18.871 1.834 2.445 1.702 5.844-.315 8.082a14.988 14.988 0 01-8.43 4.73A18.463 18.463 0 0013.518 67.3 18.388 18.388 0 009.28 79.028v9.134H1.653a1.653 1.653 0 100 3.306h20.672a1.653 1.653 0 100-3.306h-9.74v-9.134c0-3.502 1.234-6.916 3.475-9.613a15.148 15.148 0 018.832-5.19 18.266 18.266 0 0010.274-5.765c3.072-3.41 3.284-8.573.504-12.28-3.423-4.565-5.467-10.878-5.467-16.886 0-5.617 1.698-10.413 4.91-13.87 3.005-3.234 7.165-5.015 11.712-5.015h.023c4.547 0 8.707 1.781 11.712 5.015 3.212 3.457 4.91 8.253 4.91 13.87 0 5.35-1.59 10.881-4.372 15.286l-6.562 1.563a1.653 1.653 0 10.766 3.216l14.43-3.438a5.344 5.344 0 004.119-5.215v-2.079c3.671-.573 6.489-3.757 6.489-7.587 0-3.847-2.844-7.042-6.54-7.594zM21.822 35.248a4.38 4.38 0 01-3.183-4.208 4.381 4.381 0 013.183-4.208v8.416zm50.03 0v-8.416a4.38 4.38 0 013.182 4.208 4.381 4.381 0 01-3.183 4.208z" fill="#414142"/><path d="M84.394 88.162V79.03c0-8.825-6.309-16.418-15.001-18.054a15.076 15.076 0 01-8.428-4.73 6.28 6.28 0 01-1.597-3.972c-.034-.913-.573-1.803-1.465-2-.891-.197-1.789.368-1.833 1.28a9.616 9.616 0 002.438 6.905 18.361 18.361 0 0010.273 5.766c7.131 1.342 12.306 7.568 12.306 14.804v9.134H34.994a1.653 1.653 0 000 3.306H91.91a1.653 1.653 0 100-3.306h-7.516zm-55.298 0h-.782a1 1 0 00-1 1v1.307a1 1 0 001 1h.782a1 1 0 001-1v-1.307a1 1 0 00-1-1z" fill="#414142"/></symbol><symbol fill="none" viewBox="0 0 16 23" id="map" xmlns="http://www.w3.org/2000/svg"><path d="M8.28 0C4.162 0 .81 3.365.81 7.5c0 1.241.31 2.472.897 3.564L7.87 22.258a.466.466 0 00.817 0l6.166-11.197A7.539 7.539 0 0015.75 7.5c0-4.135-3.35-7.5-7.47-7.5zm0 11.25c-2.06 0-3.735-1.682-3.735-3.75S6.221 3.75 8.28 3.75s3.734 1.682 3.734 3.75-1.675 3.75-3.734 3.75z" fill="#6D6D6D"/></symbol><symbol fill="none" viewBox="0 0 17 17" id="phone" xmlns="http://www.w3.org/2000/svg"><path d="M15.658 11.193a9.72 9.72 0 01-3.05-.485c-.475-.164-1.014-.037-1.326.281l-1.93 1.458C7.137 11.265 5.72 9.848 4.554 7.65l1.418-1.884c.357-.357.485-.88.332-1.37a9.715 9.715 0 01-.488-3.054C5.816.602 5.214 0 4.474 0H1.342C.602 0 0 .602 0 1.342 0 9.975 7.025 17 15.658 17c.74 0 1.342-.602 1.342-1.342v-3.123c0-.74-.602-1.342-1.342-1.342z" fill="#6D6D6D"/></symbol><symbol fill="none" viewBox="0 0 18 18" id="search" xmlns="http://www.w3.org/2000/svg"><path fill-rule="evenodd" clip-rule="evenodd" d="M12.219 2.094c2.613 2.62 2.763 6.828.471 9.62l4.305 4.338c.279.3.279.73 0 1.009a.65.65 0 01-.492.215.683.683 0 01-.493-.215l-4.327-4.338a7.207 7.207 0 01-4.54 1.61 7.088 7.088 0 01-5.055-2.082c-2.784-2.792-2.784-7.366 0-10.157 2.785-2.792 7.347-2.792 10.13 0zm-9.124 1.01c-2.228 2.232-2.228 5.883 0 8.116a5.69 5.69 0 008.096 0c2.227-2.233 2.227-5.884 0-8.117a5.704 5.704 0 00-4.048-1.696c-1.478 0-2.934.58-4.048 1.696z" fill="#414142"/></symbol><symbol fill="none" viewBox="0 0 15 13" id="success-icon" xmlns="http://www.w3.org/2000/svg"><path d="M6.68 13C2.998 13 0 10.084 0 6.5S2.997 0 6.68 0c1.281 0 2.528.355 3.604 1.028a.437.437 0 01.138.612.463.463 0 01-.63.134A5.861 5.861 0 006.68.886C3.499.886.91 3.405.91 6.5c0 3.095 2.588 5.614 5.77 5.614 3.18 0 5.77-2.519 5.77-5.614 0-.185-.01-.368-.028-.548a.447.447 0 01.41-.484.453.453 0 01.497.398c.02.209.031.42.031.634 0 3.584-2.997 6.5-6.68 6.5z" fill="#fff"/><path d="M7.456 7.944a.438.438 0 01-.316-.133l-2.676-2.73a.462.462 0 010-.644.44.44 0 01.631 0l2.361 2.409L13.683.494a.44.44 0 01.63 0 .462.462 0 010 .644L7.772 7.812a.442.442 0 01-.315.132z" fill="#fff"/></symbol><symbol fill="none" viewBox="0 0 23 22" id="time" xmlns="http://www.w3.org/2000/svg"><path d="M11.728 0C5.678 0 .774 4.925.774 11S5.68 22 11.728 22c6.05 0 10.955-4.925 10.955-11S17.778 0 11.728 0zm4.736 13.092H11.82c-.016 0-.03-.004-.046-.004-.015 0-.03.004-.046.004a.76.76 0 01-.757-.76V4.564c0-.42.339-.76.757-.76a.76.76 0 01.758.76v7.005h3.978a.76.76 0 01.758.761.76.76 0 01-.758.761z" fill="#6D6D6D"/></symbol></svg>