<svg width="18" height="18" viewBox="0 0 18 18" fill="none" xmlns="http://www.w3.org/2000/svg">
<path fill-rule="evenodd" clip-rule="evenodd" d="M12.2189 2.0937C14.8319 4.7135 14.9819 8.92237 12.6901 11.714L16.9952 16.0517C17.2736 16.3523 17.2736 16.7818 16.9952 17.0609C16.8666 17.2113 16.6739 17.2757 16.5025 17.2757C16.3312 17.2757 16.1599 17.2113 16.0099 17.0609L11.6835 12.7232C10.3556 13.7969 8.74924 14.3338 7.14289 14.3338C5.30095 14.3338 3.48042 13.6466 2.08825 12.2508C-0.696084 9.45921 -0.696084 4.88529 2.08825 2.0937C4.87259 -0.697899 9.43461 -0.697899 12.2189 2.0937ZM3.09488 3.10313C0.867409 5.33641 0.867409 8.98696 3.09488 11.2202C5.32234 13.475 8.96339 13.475 11.1909 11.2202C13.4183 8.98696 13.4183 5.33641 11.1909 3.10313C10.0771 1.9865 8.62071 1.4067 7.14287 1.4067C5.66503 1.4067 4.20861 1.9865 3.09488 3.10313Z" fill="#A7BBC3"/>
</svg>
